<?xml version="1.0" encoding="UTF-8"?>
<svg version="1.1" xmlns="http://www.w3.org/2000/svg" width="750" height="750">
<path d="M0 0 C0.93826126 -0.00570007 1.87652252 -0.01140015 2.84321594 -0.01727295 C4.82246793 -0.02668255 6.80173529 -0.03324078 8.78100586 -0.03710938 C11.77421127 -0.04678908 14.76672169 -0.07784075 17.75976562 -0.109375 C34.17069629 -0.20284897 45.47122767 1.77483314 59.11328125 11.203125 C60.35271484 12.04037109 60.35271484 12.04037109 61.6171875 12.89453125 C77.24167175 24.17133292 85.55913958 41.83001698 88.64306641 60.3918457 C90.03023421 69.88988871 90.54806303 79.25978973 90.59375 88.85595703 C90.61332517 91.3336839 90.67570938 93.80819005 90.73828125 96.28515625 C90.92730077 110.66990908 86.6306392 120.56339453 78.11328125 132.203125 C77.44425781 133.13769531 76.77523437 134.07226562 76.0859375 135.03515625 C63.25317531 152.60408726 50.65230712 164.64480032 28.79882812 168.53515625 C17.99370061 170.19748356 7.20716636 170.57442975 -3.70770264 170.6769104 C-5.47444014 170.69419821 -7.24112117 170.71923172 -9.00762939 170.75253296 C-22.49648685 170.97825782 -33.61436714 170.09205232 -44.26171875 160.828125 C-45.81837624 159.30159636 -47.36136466 157.76093343 -48.88671875 156.203125 C-49.510625 155.625625 -50.13453125 155.048125 -50.77734375 154.453125 C-61.81022914 144.11600716 -67.38068284 133.3596463 -68.0637207 118.30078125 C-68.09010503 116.95583284 -68.11032992 115.61075218 -68.125 114.265625 C-68.13307175 113.54125244 -68.14114349 112.81687988 -68.14945984 112.07055664 C-68.16317962 110.55129303 -68.17395486 109.03200017 -68.18188477 107.51269531 C-68.19344145 105.97288857 -68.21395135 104.43312302 -68.2434082 102.89355469 C-68.43910874 92.62966268 -68.37693371 85.16079635 -61.22265625 77.26171875 C-43.50484363 61.57748093 -24.73141989 49.14586888 -0.44921875 48.890625 C0.46666016 48.86162109 1.38253906 48.83261719 2.32617188 48.80273438 C9.51766099 48.73562069 13.68769143 50.00056489 18.93945312 54.91040039 C23.45893611 59.69400119 26.18913505 64.72508737 28.55078125 70.828125 C28.89133545 71.70114258 29.23188965 72.57416016 29.58276367 73.47363281 C32.52631466 81.49493813 34.36615456 89.40742671 31.14453125 97.6953125 C27.23269769 104.54102123 20.82181181 108.11491621 14.11328125 111.828125 C13.06527344 112.41980469 13.06527344 112.41980469 11.99609375 113.0234375 C1.14142995 119.08566483 1.14142995 119.08566483 -5.88671875 117.203125 C-9.09765548 114.76002096 -10.5853786 113.08831169 -11.88671875 109.265625 C-11.88671875 105.23438164 -11.15069007 103.57383323 -8.88671875 100.203125 C-5.84152706 98.15120362 -2.5850256 96.62737246 0.73828125 95.078125 C2.48654192 94.25496437 4.22910008 93.41954905 5.96484375 92.5703125 C6.73650879 92.21050293 7.50817383 91.85069336 8.30322266 91.47998047 C10.25919603 90.33999221 10.25919603 90.33999221 10.93261719 88.24853516 C11.21650581 85.03445554 9.96256323 82.65222413 8.73828125 79.703125 C5.83688548 72.6360381 5.83688548 72.6360381 5.11328125 69.203125 C-7.93833813 69.80736664 -17.68749111 72.46003176 -28.88671875 79.203125 C-29.78261719 79.73550781 -30.67851562 80.26789063 -31.6015625 80.81640625 C-40.4601058 86.33192121 -40.4601058 86.33192121 -46.88671875 94.203125 C-46.98275951 95.76460284 -47.01746483 97.33010401 -47.01953125 98.89453125 C-47.02082031 99.84005859 -47.02210938 100.78558594 -47.0234375 101.75976562 C-47.01763672 103.24766602 -47.01763672 103.24766602 -47.01171875 104.765625 C-47.01558594 105.73048828 -47.01945312 106.69535156 -47.0234375 107.68945312 C-47.00514357 121.23610796 -45.2564751 129.75111156 -36.13671875 140.015625 C-35.64776123 140.57926758 -35.15880371 141.14291016 -34.6550293 141.72363281 C-28.93118929 147.90965779 -23.24999868 149.30809455 -15.01953125 149.63671875 C-12.34766209 149.66049251 -9.68290163 149.66501793 -7.01171875 149.640625 C-6.31295624 149.63758362 -5.61419373 149.63454224 -4.89425659 149.63140869 C5.00275619 149.5680304 14.74189628 148.98767795 24.55078125 147.578125 C25.59024902 147.43818115 26.6297168 147.2982373 27.70068359 147.15405273 C41.02358246 144.95692389 49.4679001 136.17388034 57.15429688 125.62890625 C57.69763672 124.86964844 58.24097656 124.11039062 58.80078125 123.328125 C59.35572266 122.57660156 59.91066406 121.82507813 60.48242188 121.05078125 C67.91771947 110.74215224 69.7843844 103.03083302 69.55078125 90.265625 C69.54005585 89.23441528 69.54005585 89.23441528 69.52911377 88.18237305 C69.34679208 71.37749458 67.46182022 56.45086864 60.11328125 41.203125 C59.76910156 40.48769531 59.42492187 39.77226562 59.0703125 39.03515625 C54.42446195 31.25647162 42.48617479 23.87668351 33.94897461 21.63476562 C30.2446481 21.0709043 26.57797197 21.02094913 22.83984375 21 C22.03904388 20.99429993 21.23824402 20.98859985 20.41317749 20.98272705 C18.71703398 20.9732998 17.02087234 20.96675213 15.32470703 20.96289062 C12.78122957 20.95328716 10.23859707 20.9222862 7.6953125 20.890625 C-11.62336042 20.76128312 -26.96693685 24.80294536 -43.44921875 35.015625 C-44.42568359 35.60666016 -45.40214844 36.19769531 -46.40820312 36.80664062 C-54.31726367 41.65788378 -61.904125 46.82434654 -68.32421875 53.578125 C-71.34475158 56.73900582 -72.67233595 58.06300391 -77.13671875 58.578125 C-81.93421096 58.09837578 -83.66293962 56.73393072 -86.88671875 53.203125 C-88.16192621 49.67755142 -88.13114264 47.93639667 -86.94921875 44.390625 C-80.19262632 33.94861851 -71.18844238 27.78534396 -60.88671875 21.203125 C-60.13438965 20.7198877 -59.38206055 20.23665039 -58.60693359 19.73876953 C-39.94888746 7.83165165 -22.56368523 0.10790577 0 0 Z " fill="#BCB09D" transform="translate(394.88671875,250.796875)"/>
<path d="M0 0 C3.8776403 3.40385751 6.06380295 6.59770547 8.1640625 11.28515625 C8.43810913 11.89028046 8.71215576 12.49540466 8.99450684 13.11886597 C9.88412124 15.09464697 10.75551172 17.07778815 11.625 19.0625 C12.24060104 20.44935412 12.85632539 21.83615351 13.47216797 23.22290039 C30.80483744 62.47979297 30.80483744 62.47979297 34 80 C34.1654834 80.85964355 34.3309668 81.71928711 34.50146484 82.60498047 C39.88163516 111.01945978 40.32949842 139.72028334 40.36744571 168.53745079 C40.37115028 171.00642625 40.37741789 173.47538309 40.3844471 175.9443512 C40.40866669 184.58790947 40.4219442 193.23140955 40.42553711 201.875 C40.42920765 209.89521933 40.45942086 217.91506447 40.50094169 225.93516874 C40.53560894 232.87764892 40.55108449 239.82000375 40.55178314 246.7625699 C40.55257359 250.88613919 40.56121491 255.00931877 40.58978081 259.13279724 C40.61591857 262.98779944 40.61819171 266.84208566 40.60212517 270.69713593 C40.6003105 272.10725722 40.60700325 273.51741973 40.62294388 274.92745209 C40.74992751 286.88784601 40.74992751 286.88784601 37.58753967 290.8223877 C33.5772453 294.19735677 31.25198992 294.44508389 26 294 C23.24670979 292.20437595 21.47372539 290.94745078 20 288 C19.89881026 286.16108019 19.86216913 284.31848012 19.85523987 282.47679138 C19.84834137 281.30167999 19.84144287 280.1265686 19.83433533 278.91584778 C19.83172195 277.61902573 19.82910858 276.32220367 19.82641602 274.98608398 C19.82011055 273.61077668 19.81334476 272.23547141 19.80615234 270.86016846 C19.79145216 267.88804487 19.77973758 264.91592931 19.77020454 261.94378471 C19.75469267 257.20882946 19.73072684 252.47393999 19.70530701 247.73902893 C19.63431645 234.26950284 19.57509272 220.79993476 19.52319336 207.33032227 C19.49447997 199.89795888 19.45886527 192.46565669 19.41653961 185.03335816 C19.39456389 181.11602755 19.3758815 177.19875168 19.36609077 173.28137016 C19.32441325 157.23932341 19.05482481 141.25087609 18.09350586 125.23461914 C17.97640306 123.25899947 17.97640306 123.25899947 17.85693455 121.24346828 C15.74222296 88.864769 7.74000223 60.88102204 -6.29394531 31.70996094 C-15.30136618 12.94061963 -15.30136618 12.94061963 -14 6 C-10.48556726 0.61120313 -6.50185566 -1.5698174 0 0 Z " fill="#BCB09D" transform="translate(276,274)"/>
<path d="M0 0 C20.30911399 20.30911399 13.33121529 82.02986696 13.36744571 109.57038236 C13.3711499 112.04136013 13.37741729 114.51231929 13.3844471 116.98328972 C13.40866503 125.63217903 13.42194414 134.28101018 13.42553711 142.92993164 C13.42920906 150.9581231 13.45943237 158.98594106 13.50094169 167.01401764 C13.53559173 173.9615777 13.55108417 180.9090125 13.55178314 187.8566584 C13.55257408 191.98410792 13.56123861 196.11116834 13.58978081 200.2385273 C13.61588928 204.0959887 13.61820824 207.95273439 13.60212517 211.81024361 C13.60030824 213.22239747 13.60702363 214.63459227 13.62294388 216.04665756 C13.73618644 226.74042962 13.73618644 226.74042962 11.84675789 229.97312737 C10.46253967 231.37779236 10.46253967 231.37779236 8 233 C7.67 232.01 7.34 231.02 7 230 C7.66 229.01 8.32 228.02 9 227 C11.19712624 212.43910476 10.14768214 197.16279613 10.1343255 182.47517705 C10.13175856 178.75960932 10.13415138 175.04404381 10.13571167 171.32847595 C10.13752111 165.09275869 10.13515967 158.85705334 10.13037109 152.62133789 C10.12493325 145.45838307 10.12669264 138.29545675 10.1321975 131.13250262 C10.13676665 124.93408628 10.13736066 118.73567842 10.13475883 112.53726095 C10.1332165 108.85650666 10.13294507 105.17576567 10.13629532 101.49501228 C10.15096922 82.80710904 10.06449987 64.30329131 7.5625 45.75 C7.44068359 44.77160156 7.31886719 43.79320312 7.19335938 42.78515625 C7.06896484 41.84027344 6.94457031 40.89539063 6.81640625 39.921875 C6.70756104 39.09268555 6.59871582 38.26349609 6.48657227 37.40917969 C6.05936174 34.91899167 6.05936174 34.91899167 4.94897461 32.37988281 C4 30 4 30 4 27 C3.34 26.67 2.68 26.34 2 26 C2.02320313 25.16597656 2.04640625 24.33195312 2.0703125 23.47265625 C2.16817714 17.37009721 2.06842827 11.80313284 0.4375 5.90234375 C0 4 0 4 0 0 Z " fill="#918FA1" transform="translate(303,333)"/>
<path d="M0 0 C0.66 0 1.32 0 2 0 C3.63337355 11.1008802 4.30403665 21.93405208 4.31884766 33.14648438 C4.32817509 34.79414852 4.3383478 36.44180806 4.34928894 38.08946228 C4.37628623 42.50778571 4.39164706 46.92607783 4.40471697 51.34446144 C4.42048196 55.98224044 4.44722858 60.61995669 4.4727478 65.25769043 C4.51930126 74.01550243 4.5561578 82.77332655 4.58942068 91.53119802 C4.62780894 101.51207121 4.67717461 111.49288101 4.72740483 121.47370052 C4.83037561 141.98242004 4.91974794 162.49117981 5 183 C4.34 183.33 3.68 183.66 3 184 C2.99668985 183.25828112 2.99337971 182.51656223 2.98996925 181.75236702 C2.90801248 163.53114935 2.81569837 145.31000951 2.71247292 127.08889961 C2.66278813 118.27656839 2.61634887 109.46424448 2.578125 100.65185547 C2.54472009 92.95250811 2.50464105 85.25322624 2.45720994 77.5539521 C2.43241459 73.49404238 2.41050849 69.43417338 2.39665604 65.37421036 C2.31937211 43.51916959 1.51501078 21.80388967 0 0 Z " fill="#B6B3BB" transform="translate(294,377)"/>
<path d="M0 0 C0.33 0 0.66 0 1 0 C1.13277344 0.92683594 1.26554687 1.85367187 1.40234375 2.80859375 C1.57894531 4.00613281 1.75554687 5.20367187 1.9375 6.4375 C2.11152344 7.63246094 2.28554688 8.82742188 2.46484375 10.05859375 C2.68985213 12.87955676 2.68985213 12.87955676 4 14 C4.3193664 19.19502679 4.35730961 24.39282407 4.4050293 29.59667969 C4.426416 31.34427891 4.46028291 33.09177688 4.50756836 34.83886719 C4.92126438 50.27370375 1.9525218 61.64928017 -8 74 C-8.99 74.495 -8.99 74.495 -10 75 C-10 72.36 -10 69.72 -10 67 C-8.68 67 -7.36 67 -6 67 C-5.896875 65.80375 -5.79375 64.6075 -5.6875 63.375 C-5.21108648 59.4375824 -3.98869284 56.45859625 -2 53 C-1.34 53 -0.68 53 0 53 C0.99354887 48.01635887 1.19104184 43.24626547 1.1875 38.1875 C1.18886963 37.33816895 1.19023926 36.48883789 1.19165039 35.61376953 C1.12942402 27.05725958 0.42757322 18.56672509 -0.3762207 10.05151367 C-0.46991943 9.03162354 -0.56361816 8.0117334 -0.66015625 6.9609375 C-0.74918213 6.05134277 -0.83820801 5.14174805 -0.92993164 4.20458984 C-1 2 -1 2 0 0 Z " fill="#A4A3A6" transform="translate(481,309)"/>
<path d="M0 0 C2.85802214 2.85802214 3.38419431 6.25123181 4.375 10.0625 C4.59124023 10.88943359 4.80748047 11.71636719 5.03027344 12.56835938 C9.25269952 29.42086171 12.23489647 47.27545615 12.0625 64.6875 C12.05347656 65.88761719 12.04445313 67.08773437 12.03515625 68.32421875 C12.02355469 69.20722656 12.01195312 70.09023438 12 71 C11.67 71 11.34 71 11 71 C10.85900879 69.93563721 10.71801758 68.87127441 10.57275391 67.7746582 C10.04627943 63.81347422 9.51123269 59.85348694 8.97363281 55.89379883 C8.74246225 54.18219776 8.51359533 52.47028389 8.28710938 50.75805664 C7.96053349 48.29226545 7.62559879 45.82773031 7.2890625 43.36328125 C7.19001617 42.60163162 7.09096985 41.83998199 6.98892212 41.05525208 C6.43743393 37.08061973 5.56435017 33.68324295 4 30 C4 29.01 4 28.02 4 27 C3.34 26.67 2.68 26.34 2 26 C2.02320313 25.16597656 2.04640625 24.33195312 2.0703125 23.47265625 C2.16817714 17.37009721 2.06842827 11.80313284 0.4375 5.90234375 C0 4 0 4 0 0 Z " fill="#B8B3AD" transform="translate(303,333)"/>
<path d="M0 0 C1.91091919 -0.36076355 1.91091919 -0.36076355 4.26611328 -0.34057617 C5.14687531 -0.34034958 6.02763733 -0.34012299 6.93508911 -0.33988953 C7.88721283 -0.32440567 8.83933655 -0.30892181 9.8203125 -0.29296875 C10.79410858 -0.28872391 11.76790466 -0.28447906 12.77120972 -0.28010559 C15.88941805 -0.26327786 19.00698617 -0.22561811 22.125 -0.1875 C24.23566777 -0.17245846 26.34634564 -0.15876914 28.45703125 -0.14648438 C33.63824023 -0.11336109 38.81907439 -0.06312151 44 0 C41.45136729 2.54863271 39.54050181 2.90735406 36.00042725 3.12025452 C35.29871399 3.11803391 34.59700073 3.11581329 33.87402344 3.11352539 C33.07349548 3.11344986 32.27296753 3.11337433 31.44818115 3.11329651 C30.16672211 3.10555458 30.16672211 3.10555458 28.859375 3.09765625 C27.97719299 3.0962413 27.09501099 3.09482635 26.18609619 3.09336853 C23.37402935 3.08778001 20.5620427 3.07522961 17.75 3.0625 C15.84114698 3.05748352 13.93229272 3.05292087 12.0234375 3.04882812 C7.34892753 3.03781434 2.67447735 3.02055758 -2 3 C-1.34 2.01 -0.68 1.02 0 0 Z " fill="#BCB4AF" transform="translate(372,417)"/>
<path d="M0 0 C1.32 0.33 2.64 0.66 4 1 C4.1875 3.25 4.1875 3.25 4 6 C3.50048828 6.56195068 3.00097656 7.12390137 2.48632812 7.70288086 C0.39600948 10.93346696 0.78164271 13.81185212 1.03125 17.50390625 C1.06480591 18.22360092 1.09836182 18.94329559 1.13293457 19.68479919 C1.24028784 21.97841801 1.36769141 24.27019358 1.5 26.5625 C1.6739985 29.58406311 1.82760248 32.60565081 1.96875 35.62890625 C2.0155188 36.32270889 2.0622876 37.01651154 2.11047363 37.7313385 C2.33380375 42.5631066 2.33380375 42.5631066 0.50195312 44.96069336 C-0.24151367 45.47515015 -0.24151367 45.47515015 -1 46 C-2.04468246 38.46992885 -2.1861953 30.99724218 -2.18530273 23.40600586 C-2.18750653 21.30627667 -2.20577306 19.20705981 -2.22460938 17.10742188 C-2.22754129 15.7552101 -2.22952743 14.40299587 -2.23046875 13.05078125 C-2.23457764 11.84075439 -2.23868652 10.63072754 -2.24291992 9.3840332 C-1.99586052 5.94233432 -1.23555945 3.20841458 0 0 Z " fill="#BCB5AF" transform="translate(330,334)"/>
<path d="M0 0 C0.969375 0.66 1.93875 1.32 2.9375 2 C5.5299253 4.09113148 5.5299253 4.09113148 7 4 C7.26156512 7.05159307 7.022074 8.94481501 5.875 11.8125 C4 14 4 14 1.0625 14.6875 C-2 14 -2 14 -4.4375 11.25 C-6 8 -6 8 -5.9375 5.8125 C-4.89179832 3.79081008 -3.71175449 2.48848217 -2 1 C-1.34 1.33 -0.68 1.66 0 2 C0 1.34 0 0.68 0 0 Z " fill="#C2B5A0" transform="translate(317,294)"/>
<path d="M0 0 C0.96672134 0.00141495 1.93344269 0.0028299 2.92945862 0.00428772 C5.99597357 0.00985404 9.06241363 0.02240026 12.12890625 0.03515625 C14.21679582 0.0401756 16.30468653 0.04473775 18.39257812 0.04882812 C23.49221605 0.05981243 28.59179848 0.0770537 33.69140625 0.09765625 C33.69140625 0.75765625 33.69140625 1.41765625 33.69140625 2.09765625 C32.64388184 2.1227124 31.59635742 2.14776855 30.51708984 2.17358398 C26.56208844 2.2690677 22.60720651 2.36892035 18.65234375 2.4699707 C16.95347931 2.51279517 15.25458612 2.55449658 13.55566406 2.5949707 C3.23880565 2.84162523 -7.02129946 3.2380966 -17.30859375 4.09765625 C-17.30859375 3.10765625 -17.30859375 2.11765625 -17.30859375 1.09765625 C-11.50205148 0.09341285 -5.88493582 -0.03278988 0 0 Z " fill="#888996" transform="translate(395.30859375,250.90234375)"/>
<path d="M0 0 C0 0.33 0 0.66 0 1 C-1.093125 1.226875 -2.18625 1.45375 -3.3125 1.6875 C-7.05474775 2.66856387 -7.05474775 2.66856387 -8.9375 5.3125 C-10.06282019 8.15889813 -10.40888459 9.97425402 -10 13 C-9.34 13.66 -8.68 14.32 -8 15 C-8.99 17.475 -8.99 17.475 -10 20 C-9.34 20 -8.68 20 -8 20 C-7.35089846 21.58199631 -6.70585306 23.16565724 -6.0625 24.75 C-5.70285156 25.63171875 -5.34320313 26.5134375 -4.97265625 27.421875 C-4 30 -4 30 -3.49609375 32.203125 C-3.0942312 34.23471798 -3.0942312 34.23471798 -1 36 C-1.66 36.66 -2.32 37.32 -3 38 C-15.52206929 14.1177029 -15.52206929 14.1177029 -14 6 C-9.88815502 -0.30482896 -7.02946014 -0.11337839 0 0 Z " fill="#9C9EA1" transform="translate(276,274)"/>
<path d="M0 0 C1.32 0 2.64 0 4 0 C7.20471073 12.38167267 7.36009928 24.21400187 7.1875 36.9375 C7.17241235 38.89256771 7.15873123 40.8476468 7.14648438 42.80273438 C7.11383334 47.5354436 7.06228114 52.26759178 7 57 C6.67 57 6.34 57 6 57 C5.98541748 56.15518066 5.97083496 55.31036133 5.95581055 54.43994141 C5.59696855 35.80298139 4.64007982 18.13849385 0 0 Z " fill="#83878F" transform="translate(459,299)"/>
<path d="M0 0 C0 0.66 0 1.32 0 2 C-5.37461991 2.2167614 -10.74945682 2.41367781 -16.12548828 2.59204102 C-17.95511416 2.65556292 -19.78455853 2.72455369 -21.61376953 2.79907227 C-24.23962636 2.9051028 -26.86550303 2.99159892 -29.4921875 3.07421875 C-30.31306854 3.11157639 -31.13394958 3.14893402 -31.97970581 3.18742371 C-34.28466797 3.2487793 -34.28466797 3.2487793 -38 3 C-38.66 2.01 -39.32 1.02 -40 0 C-35.75020114 -0.16928564 -31.50018116 -0.3296425 -27.24975586 -0.48217773 C-25.80760925 -0.53513747 -24.36554589 -0.59042271 -22.92358398 -0.64819336 C-15.19312878 -0.95633975 -7.68162422 -1.15868075 0 0 Z " fill="#B9B4AE" transform="translate(413,402)"/>
<path d="M0 0 C0.99 0 1.98 0 3 0 C3 0.99 3 1.98 3 3 C4.65 2.67 6.3 2.34 8 2 C3.56267712 5.72735122 -0.8102006 8.07423049 -6.6875 7.875 C-9.87284882 7.0335871 -11.60191685 6.2062365 -14 4 C-13.67 3.01 -13.34 2.02 -13 1 C-12.01 1 -11.02 1 -10 1 C-10 1.66 -10 2.32 -10 3 C-6.7 3 -3.4 3 0 3 C0 2.01 0 1.02 0 0 Z " fill="#9F9FA1" transform="translate(399,361)"/>
<path d="M0 0 C0.33 0 0.66 0 1 0 C1.91819814 14.52793495 1.91819814 14.52793495 -2.5703125 20.44921875 C-5.66923519 23.8106185 -8.37606639 26.3149728 -13 27 C-13.33 26.01 -13.66 25.02 -14 24 C-13.278125 23.773125 -12.55625 23.54625 -11.8125 23.3125 C-8.40125439 21.72058538 -6.44232995 19.84938495 -4 17 C-3.28552357 14.89667109 -3.28552357 14.89667109 -3 13 C-2.34 12.34 -1.68 11.68 -1 11 C-0.53709779 8.33757179 -0.53709779 8.33757179 -0.375 5.375 C-0.30023438 4.37210937 -0.22546875 3.36921875 -0.1484375 2.3359375 C-0.09945313 1.56507813 -0.05046875 0.79421875 0 0 Z " fill="#94949B" transform="translate(426,332)"/>
<path d="M0 0 C0.33 0 0.66 0 1 0 C4.58165209 25.76376337 4.58165209 25.76376337 4 38 C3.67 38 3.34 38 3 38 C0.75637987 25.20602331 -0.42356244 12.98924825 0 0 Z " fill="#7B7F8A" transform="translate(311,366)"/>
<path d="M0 0 C3.22773574 3.76449889 5.61193007 7.70525067 7.8125 12.125 C8.29879883 13.05505859 8.29879883 13.05505859 8.79492188 14.00390625 C9.61180818 15.63068197 10.31430348 17.31372518 11 19 C10.67 19.99 10.34 20.98 10 22 C9.34 21.01 8.68 20.02 8 19 C7.01 19.99 6.02 20.98 5 22 C5 18 5 18 7 16 C6.34 15.34 5.68 14.68 5 14 C4.080125 12.399975 3.21013188 10.77084469 2.375 9.125 C1.92898438 8.26132812 1.48296875 7.39765625 1.0234375 6.5078125 C0 4 0 4 0 0 Z " fill="#8D9292" transform="translate(469,277)"/>
<path d="M0 0 C10.23 0 20.46 0 31 0 C31 0.33 31 0.66 31 1 C24.46241309 3.45745735 18.46046051 3.03437451 11.5625 2.625 C10.44939453 2.56828125 9.33628906 2.5115625 8.18945312 2.453125 C5.45890628 2.31249598 2.72939843 2.16117115 0 2 C0 1.34 0 0.68 0 0 Z " fill="#BEB3A8" transform="translate(392,253)"/>
<path d="M0 0 C0.66 0.33 1.32 0.66 2 1 C2.33 1.99 2.66 2.98 3 4 C1.8125 5.5 1.8125 5.5 0 7 C-2.6875 7.1875 -2.6875 7.1875 -5 7 C-5.33 8.65 -5.66 10.3 -6 12 C-7.32 11.67 -8.64 11.34 -10 11 C-8.55218207 7.55571735 -6.72305391 5.63869038 -3.875 3.25 C-3.15054687 2.63640625 -2.42609375 2.0228125 -1.6796875 1.390625 C-0.84824219 0.70226562 -0.84824219 0.70226562 0 0 Z " fill="#A5A29C" transform="translate(322,280)"/>
<path d="M0 0 C0.33 0 0.66 0 1 0 C1.11608726 3.27053517 1.18720711 6.5405418 1.25 9.8125 C1.28351563 10.74126953 1.31703125 11.67003906 1.3515625 12.62695312 C1.36445313 13.51962891 1.37734375 14.41230469 1.390625 15.33203125 C1.4220459 16.56530151 1.4220459 16.56530151 1.45410156 17.82348633 C1 20 1 20 -1.02441406 21.79174805 C-2.0023291 22.38983276 -2.0023291 22.38983276 -3 23 C-3.33 22.01 -3.66 21.02 -4 20 C-3.01 18.515 -3.01 18.515 -2 17 C-1.72457149 14.26843062 -1.5361176 11.61223976 -1.4375 8.875 C-1.12058024 1.12058024 -1.12058024 1.12058024 0 0 Z " fill="#B0AFB1" transform="translate(314,543)"/>
<path d="M0 0 C0.66 0 1.32 0 2 0 C3.40071625 2.90499087 4.76584957 5.82535947 6.125 8.75 C6.52332031 9.575 6.92164063 10.4 7.33203125 11.25 C7.69941406 12.04921875 8.06679688 12.8484375 8.4453125 13.671875 C8.79094238 14.4050293 9.13657227 15.13818359 9.49267578 15.89355469 C10 18 10 18 9.09716797 20.27050781 C8.73510254 20.84124023 8.37303711 21.41197266 8 22 C6.14999257 18.42331897 4.9437211 14.9097017 4 11 C3.67 11 3.34 11 3 11 C2.87625 10.195625 2.7525 9.39125 2.625 8.5625 C2.315625 7.2940625 2.315625 7.2940625 2 6 C1.34 5.67 0.68 5.34 0 5 C0 3.35 0 1.7 0 0 Z " fill="#8E9197" transform="translate(281,283)"/>
<path d="M0 0 C5 7.5 5 7.5 5 11 C7.6739124 11.89130413 10.23723823 12.47731534 13 13 C13 13.33 13 13.66 13 14 C8.53968427 14.44603157 6.47384873 14.2983492 2.625 11.875 C-0.26397653 8.71088285 -0.90810941 7.22696719 -1 3 C-0.67 2.01 -0.34 1.02 0 0 Z " fill="#7F868E" transform="translate(308,295)"/>
<path d="M0 0 C0.66 0 1.32 0 2 0 C2.33559955 2.60389297 2.66856858 5.2080761 3 7.8125 C3.09539062 8.55048828 3.19078125 9.28847656 3.2890625 10.04882812 C3.66984677 13.05430395 4 15.96714441 4 19 C3.34 19 2.68 19 2 19 C1.67 19.66 1.34 20.32 1 21 C0.67 14.07 0.34 7.14 0 0 Z " fill="#B3B2AD" transform="translate(294,377)"/>
<path d="M0 0 C0.99 0.33 1.98 0.66 3 1 C2.67 1.66 2.34 2.32 2 3 C2.99 2.67 3.98 2.34 5 2 C5 3.65 5 5.3 5 7 C4.01 7.33 3.02 7.66 2 8 C1.26676204 10.01508358 1.26676204 10.01508358 1 12 C0.34 12 -0.32 12 -1 12 C-1.02698189 10.37509046 -1.04638757 8.75005367 -1.0625 7.125 C-1.07410156 6.22007812 -1.08570313 5.31515625 -1.09765625 4.3828125 C-1 2 -1 2 0 0 Z " fill="#C0B5A7" transform="translate(466,377)"/>
<path d="M0 0 C0.99 0 1.98 0 3 0 C2.36245966 3.43956951 1.01340354 5.80168914 -0.9375 8.6875 C-1.46214844 9.47511719 -1.98679687 10.26273437 -2.52734375 11.07421875 C-4 13 -4 13 -6 14 C-6 11.36 -6 8.72 -6 6 C-4.68 6 -3.36 6 -2 6 C-1.34 4.02 -0.68 2.04 0 0 Z " fill="#8E9295" transform="translate(477,370)"/>
<path d="M0 0 C1.98 0.495 1.98 0.495 4 1 C3.95875 1.7425 3.9175 2.485 3.875 3.25 C4.00522124 6.11486738 4.70964131 7.50530653 6 10 C5.67 10.66 5.34 11.32 5 12 C3.68 12 2.36 12 1 12 C1.04125 11.236875 1.0825 10.47375 1.125 9.6875 C1.22080824 6.77281584 1.22080824 6.77281584 -1 4 C-0.625 1.8125 -0.625 1.8125 0 0 Z " fill="#BCB7A9" transform="translate(289,344)"/>
<path d="M0 0 C0.33 0.66 0.66 1.32 1 2 C1.66 2 2.32 2 3 2 C3.33 3.32 3.66 4.64 4 6 C3.01 6 2.02 6 1 6 C-1.18777466 7.9375006 -1.18777466 7.9375006 -3 10 C-3.33 7.69 -3.66 5.38 -4 3 C-2.68 2.01 -1.36 1.02 0 0 Z " fill="#B4ADA8" transform="translate(313,290)"/>
<path d="M0 0 C0.66 1.32 1.32 2.64 2 4 C1.38125 4.2475 0.7625 4.495 0.125 4.75 C-2.38710296 6.22770762 -2.76107344 7.43955177 -4 10 C-4.99 10.33 -5.98 10.66 -7 11 C-7.99 11.495 -7.99 11.495 -9 12 C-9.99 11.34 -10.98 10.68 -12 10 C-11.38511719 9.52949219 -10.77023437 9.05898438 -10.13671875 8.57421875 C-9.32847656 7.95160156 -8.52023437 7.32898438 -7.6875 6.6875 C-6.88699219 6.07261719 -6.08648437 5.45773437 -5.26171875 4.82421875 C-3.37298626 3.30083693 -1.66922364 1.75565593 0 0 Z " fill="#9A989F" transform="translate(445,385)"/>
<path d="M0 0 C1.64293043 2.46439565 2.97626772 4.77791111 4.25 7.4375 C4.62640625 8.19933594 5.0028125 8.96117187 5.390625 9.74609375 C6 12 6 12 5.109375 14.28515625 C4.56023437 15.13400391 4.56023437 15.13400391 4 16 C3.34 13.69 2.68 11.38 2 9 C1.01 9.33 0.02 9.66 -1 10 C-1 6.49064814 -0.62457273 3.43515002 0 0 Z " fill="#A2A1A2" transform="translate(291,303)"/>
<path d="M0 0 C0 0.99 0 1.98 0 3 C-5.05002222 4.03590199 -9.87416389 4.10251672 -15 4 C-15.33 3.34 -15.66 2.68 -16 2 C-10.54538831 0.61470179 -5.63281599 -0.2396943 0 0 Z " fill="#969B9F" transform="translate(388,269)"/>
<path d="M0 0 C-9.06344673 2.68359037 -17.60453769 3.6277754 -27 4 C-24.04890451 2.4260824 -21.60701312 1.68170743 -18.26953125 1.2890625 C-14.12419339 0.76108487 -10.01011229 0.00404232 -5.890625 -0.6953125 C-3 -1 -3 -1 0 0 Z " fill="#5F6878" transform="translate(437,416)"/>
<path d="M0 0 C1.65 0 3.3 0 5 0 C5 0.99 5 1.98 5 3 C-0.61 3.99 -6.22 4.98 -12 6 C-12 5.01 -12 4.02 -12 3 C-8.37 3 -4.74 3 -1 3 C-0.67 2.01 -0.34 1.02 0 0 Z " fill="#B6B2AF" transform="translate(433,412)"/>
<path d="M0 0 C3 1 3 1 4.1328125 3.14453125 C4.46023438 4.02496094 4.78765625 4.90539062 5.125 5.8125 C5.45757812 6.68519531 5.79015625 7.55789063 6.1328125 8.45703125 C7 11 7 11 7.4921875 13.19921875 C7.90744327 15.23320882 7.90744327 15.23320882 10 17 C9.34 17.66 8.68 18.32 8 19 C1.48063781 6.51480638 1.48063781 6.51480638 0 0 Z " fill="#727585" transform="translate(265,293)"/>
<path d="M0 0 C-1.61886415 1.67262717 -3.2452729 3.33795537 -4.875 5 C-5.77992188 5.928125 -6.68484375 6.85625 -7.6171875 7.8125 C-10 10 -10 10 -12 10 C-10.25 5.125 -10.25 5.125 -8 4 C-8 3.01 -8 2.02 -8 1 C-4.85571151 -0.9090323 -3.47925125 -1.04523725 0 0 Z " fill="#8F9295" transform="translate(333,298)"/>
<path d="M0 0 C0.33 0 0.66 0 1 0 C1.02578125 0.556875 1.0515625 1.11375 1.078125 1.6875 C1.61747351 8.94418904 4.00324902 14.00487353 8 20 C6.68 20.33 5.36 20.66 4 21 C4 20.01 4 19.02 4 18 C3.34 18 2.68 18 2 18 C0.176679 11.84629161 -0.2361959 6.40353322 0 0 Z " fill="#82838F" transform="translate(347,367)"/>
<path d="M0 0 C0.33 0 0.66 0 1 0 C1 1.65 1 3.3 1 5 C0.01 5 -0.98 5 -2 5 C-1.938125 6.0725 -1.87625 7.145 -1.8125 8.25 C-2.00543309 12.10866187 -2.39665076 13.28817788 -5 16 C-5.99 15.67 -6.98 15.34 -8 15 C-7.21619539 13.18408626 -6.42271553 11.37234593 -5.625 9.5625 C-5.18414062 8.55316406 -4.74328125 7.54382813 -4.2890625 6.50390625 C-3 4 -3 4 -1 3 C-0.67 2.01 -0.34 1.02 0 0 Z " fill="#9D9D9D" transform="translate(467,352)"/>
<path d="M0 0 C0.99 0 1.98 0 3 0 C4.18306728 2.36613456 4.13354608 3.86780736 4.125 6.5 C4.12757813 7.2940625 4.13015625 8.088125 4.1328125 8.90625 C4 11 4 11 3 13 C2.01 13 1.02 13 0 13 C0.185625 11.96875 0.37125 10.9375 0.5625 9.875 C0.97307082 6.23851558 0.778309 3.54562991 0 0 Z " fill="#9B9D9C" transform="translate(405,331)"/>
<path d="M0 0 C0 0.33 0 0.66 0 1 C-1.7634375 1.433125 -1.7634375 1.433125 -3.5625 1.875 C-7.4018927 2.83313721 -11.2013318 3.89205511 -15 5 C-14.67 3.35 -14.34 1.7 -14 0 C-8.97703996 -1.13016601 -5.02125926 -0.77916092 0 0 Z " fill="#8D8E95" transform="translate(388,320)"/>
<path d="M0 0 C0.66 0.33 1.32 0.66 2 1 C1.74337755 2.44010481 1.46909179 3.8770687 1.1875 5.3125 C1.03667969 6.11300781 0.88585937 6.91351563 0.73046875 7.73828125 C-0.07572236 10.23445587 -1.02052002 11.32422106 -3 13 C-4.00298661 9.17041475 -4.16842191 7.40574368 -2.625 3.6875 C-1 1 -1 1 0 0 Z " fill="#8C9299" transform="translate(387,350)"/>
<path d="M0 0 C4.56846667 3.52960987 7.86175 6.46570589 10 12 C10 12.66 10 13.32 10 14 C9.34 14 8.68 14 8 14 C8 13.01 8 12.02 8 11 C7.34 11 6.68 11 6 11 C4.64721885 9.01310269 3.31431695 7.01254782 2 5 C1.34 4.67 0.68 4.34 0 4 C0 2.68 0 1.36 0 0 Z " fill="#93989D" transform="translate(410,303)"/>
<path d="M0 0 C4.10553546 6.1583032 4.33093523 14.71942502 4 22 C3.67 22 3.34 22 3 22 C2.34 18.37 1.68 14.74 1 11 C0.67 11 0.34 11 0 11 C-0.19491452 9.54263913 -0.38069358 8.08405407 -0.5625 6.625 C-0.66691406 5.81289063 -0.77132813 5.00078125 -0.87890625 4.1640625 C-1 2 -1 2 0 0 Z " fill="#757B88" transform="translate(480,300)"/>
<path d="M0 0 C6.93 0 13.86 0 21 0 C21 0.33 21 0.66 21 1 C18.62625224 1.36542427 16.25173828 1.71756139 13.875 2.0625 C12.87726563 2.2181543 12.87726563 2.2181543 11.859375 2.37695312 C7.65885188 2.97408631 4.13930366 2.92199443 0 2 C0 1.34 0 0.68 0 0 Z " fill="#B9B6B5" transform="translate(385,301)"/>
<path d="M0 0 C0.66 0.33 1.32 0.66 2 1 C2 2.32 2 3.64 2 5 C2.99 5.33 3.98 5.66 5 6 C2.04335481 7.4783226 -0.74229737 7.06032783 -4 7 C-4.33 6.34 -4.66 5.68 -5 5 C-3.33333333 3.33333333 -1.66666667 1.66666667 0 0 Z " fill="#989995" transform="translate(306,561)"/>
<path d="M0 0 C0.99 0 1.98 0 3 0 C3 1.32 3 2.64 3 4 C3.66 4.33 4.32 4.66 5 5 C3.02 6.32 1.04 7.64 -1 9 C-1.99 8.34 -2.98 7.68 -4 7 C-3.34 6.21625 -2.68 5.4325 -2 4.625 C0.20201441 2.28487188 0.20201441 2.28487188 0 0 Z " fill="#A19D94" transform="translate(335,288)"/>
<path d="M0 0 C3.45281166 1.15093722 4.38082163 2.3205993 6.6875 5.0625 C7.31011719 5.79597656 7.93273437 6.52945312 8.57421875 7.28515625 C9.04472656 7.85105469 9.51523437 8.41695313 10 9 C9.34 9.66 8.68 10.32 8 11 C7.67 10.01 7.34 9.02 7 8 C3.99152582 6.77479736 3.99152582 6.77479736 1 6 C0.67 4.02 0.34 2.04 0 0 Z " fill="#AAA5A6" transform="translate(354,387)"/>
<path d="M0 0 C2.27467773 2.27467773 2.75132436 3.76650412 3.6875 6.8125 C4.09548828 8.09060547 4.09548828 8.09060547 4.51171875 9.39453125 C5.04831986 12.25783475 4.74719439 14.20679682 4 17 C2.48300584 14.19547298 1.54691437 11.6142698 0.875 8.5 C0.70742188 7.7471875 0.53984375 6.994375 0.3671875 6.21875 C0 4 0 4 0 0 Z " fill="#888F98" transform="translate(303,333)"/>
<path d="M0 0 C-0.99 1.485 -0.99 1.485 -2 3 C-4.77262255 3.38394667 -7.34323528 3.60342248 -10.125 3.6875 C-10.87910156 3.72166016 -11.63320313 3.75582031 -12.41015625 3.79101562 C-14.27291201 3.87354278 -16.13643326 3.93844711 -18 4 C-15.07675293 2.05116862 -13.48916982 1.51920273 -10.125 0.875 C-8.86042969 0.62363281 -8.86042969 0.62363281 -7.5703125 0.3671875 C-5.00848085 0.00121155 -2.58390011 -0.06482904 0 0 Z " fill="#B9B6B4" transform="translate(400,316)"/>
<path d="M0 0 C0 0.66 0 1.32 0 2 C-0.78375 2.28875 -1.5675 2.5775 -2.375 2.875 C-5.09671632 3.84912254 -5.09671632 3.84912254 -7 6 C-10.625 6.125 -10.625 6.125 -14 6 C-10.44167106 1.60441719 -5.49342669 0 0 0 Z " fill="#868C95" transform="translate(378,302)"/>
<path d="M0 0 C-3.19990508 2.74277578 -6.00499382 4.6302836 -10 6 C-10 4.35 -10 2.7 -10 1 C-3.375 -1.125 -3.375 -1.125 0 0 Z " fill="#9A979E" transform="translate(358,281)"/>
<path d="M0 0 C0.33 0 0.66 0 1 0 C1.054138 2.24973447 1.09285491 4.49984383 1.125 6.75 C1.14820313 8.00296875 1.17140625 9.2559375 1.1953125 10.546875 C1.01537302 13.72820492 0.68998582 15.36521896 -1 18 C-1.66 18 -2.32 18 -3 18 C-3.6875 16.1875 -3.6875 16.1875 -4 14 C-3.525625 13.5771875 -3.05125 13.154375 -2.5625 12.71875 C-0.39098647 10.33008512 -0.4995502 8.49235335 -0.3125 5.3125 C-0.24675781 4.31863281 -0.18101562 3.32476562 -0.11328125 2.30078125 C-0.07589844 1.54152344 -0.03851563 0.78226562 0 0 Z " fill="#757B84" transform="translate(426,332)"/>
<path d="M0 0 C5.15464734 0.48324819 8.81550319 3.18610761 13 6 C10 7 10 7 7 7 C6.67 5.68 6.34 4.36 6 3 C4.02 3 2.04 3 0 3 C0 2.01 0 1.02 0 0 Z " fill="#8C8F99" transform="translate(438,254)"/>
<path d="M0 0 C1.5625 1.75 1.5625 1.75 3 4 C2.6875 6.25 2.6875 6.25 2 8 C1.34 8 0.68 8 0 8 C-0.33 7.34 -0.66 6.68 -1 6 C-1.99 6.495 -1.99 6.495 -3 7 C-3.33 6.01 -3.66 5.02 -4 4 C-3.34 4 -2.68 4 -2 4 C-1.34 2.68 -0.68 1.36 0 0 Z " fill="#BCB7AB" transform="translate(477,295)"/>
<path d="M0 0 C0 3.80345877 -1.13786331 4.77701015 -3.5 7.6875 C-4.47453125 8.89986328 -4.47453125 8.89986328 -5.46875 10.13671875 C-5.9740625 10.75160156 -6.479375 11.36648438 -7 12 C-8 10 -8 10 -7.25 7.4375 C-6 5 -6 5 -3 4 C-2.67 3.01 -2.34 2.02 -2 1 C-1.34 0.67 -0.68 0.34 0 0 Z " fill="#6F757C" transform="translate(470,384)"/>
<path d="M0 0 C0.66 0.33 1.32 0.66 2 1 C0.8125 3 0.8125 3 -1 5 C-3.6875 5.25 -3.6875 5.25 -6 5 C-6.33 5.66 -6.66 6.32 -7 7 C-7.99 6.67 -8.98 6.34 -10 6 C-8.3811004 4.96951963 -6.75467511 3.95085322 -5.125 2.9375 C-4.22007812 2.36902344 -3.31515625 1.80054688 -2.3828125 1.21484375 C-1.20332031 0.61349609 -1.20332031 0.61349609 0 0 Z " fill="#81828C" transform="translate(352,261)"/>
<path d="M0 0 C1.32 0.33 2.64 0.66 4 1 C4.9765625 7.0546875 4.9765625 7.0546875 5 9 C4.34 9.66 3.68 10.32 3 11 C2.01 7.37 1.02 3.74 0 0 Z " fill="#98999C" transform="translate(284,337)"/>
<path d="M0 0 C4.63826091 0.44598663 7.44124272 0.96846602 11 4 C11.66 4 12.32 4 13 4 C12.67 4.99 12.34 5.98 12 7 C8.04 5.02 4.08 3.04 0 1 C0 0.67 0 0.34 0 0 Z " fill="#888B92" transform="translate(431,272)"/>
<path d="M0 0 C0.33 0 0.66 0 1 0 C1.36463732 1.74784829 1.7163078 3.49840502 2.0625 5.25 C2.25972656 6.22453125 2.45695312 7.1990625 2.66015625 8.203125 C2.98397535 10.868119 2.85503199 12.48871723 2 15 C-0.49118146 9.32010626 -1.38766322 6.05525768 0 0 Z " fill="#7E848E" transform="translate(308,349)"/>
<path d="M0 0 C0.99 0 1.98 0 3 0 C3.98120464 3.05263664 3.98120464 4.94736336 3 8 C1.68 7.01 0.36 6.02 -1 5 C-0.67 3.35 -0.34 1.7 0 0 Z " fill="#BFB8AE" transform="translate(340,393)"/>
<path d="M0 0 C2.631724 2.45627573 4.81527263 4.55352037 6 8 C5.625 10.25 5.625 10.25 5 12 C0.57142857 4.71428571 0.57142857 4.71428571 0 0 Z " fill="#75828E" transform="translate(329,381)"/>
<path d="M0 0 C0.99 0.33 1.98 0.66 3 1 C3 1.66 3 2.32 3 3 C3.66 3 4.32 3 5 3 C5.92091738 5.57856865 6.18506902 6.5943287 5.0234375 9.140625 C4.51683594 10.06101562 4.51683594 10.06101562 4 11 C3.32880451 9.5437455 2.66318193 8.08492133 2 6.625 C1.62875 5.81289063 1.2575 5.00078125 0.875 4.1640625 C0 2 0 2 0 0 Z " fill="#7E878E" transform="translate(274,313)"/>
<path d="M0 0 C2.31 0 4.62 0 7 0 C4.22719294 3.08089673 1.93673644 4.68775452 -2 6 C-1.34 4.02 -0.68 2.04 0 0 Z " fill="#787D82" transform="translate(444,407)"/>
<path d="M0 0 C-0.33 0.99 -0.66 1.98 -1 3 C-9.03571429 4.33928571 -9.03571429 4.33928571 -13 2 C-11.20873548 1.66451233 -9.41697413 1.33167645 -7.625 1 C-6.62726563 0.814375 -5.62953125 0.62875 -4.6015625 0.4375 C-2 0 -2 0 0 0 Z " fill="#8E8E97" transform="translate(433,396)"/>
<path d="M0 0 C0.99 0 1.98 0 3 0 C3 0.99 3 1.98 3 3 C4.65 2.67 6.3 2.34 8 2 C5.37801226 4.15377564 3.35595828 5.40072174 0 6 C0 4.02 0 2.04 0 0 Z " fill="#8B8A90" transform="translate(399,361)"/>
<path d="M0 0 C0.66 0 1.32 0 2 0 C2.625 3.375 2.625 3.375 3 7 C2.34 7.66 1.68 8.32 1 9 C-1.09230769 4.56923077 -1.09230769 4.56923077 -0.625 1.6875 C-0.41875 1.130625 -0.2125 0.57375 0 0 Z " fill="#96989F" transform="translate(282,328)"/>
<path d="M0 0 C2.27795022 2.27795022 3.05219877 3.93787293 4 7 C3.625 9.3125 3.625 9.3125 3 11 C0.5091419 8.07594919 -0.59599278 5.83806856 -1 2 C-0.67 1.34 -0.34 0.68 0 0 Z " fill="#8E9099" transform="translate(422,322)"/>
<path d="M0 0 C-0.33 0.99 -0.66 1.98 -1 3 C-5.455 3.495 -5.455 3.495 -10 4 C-4.5 -1.5 -4.5 -1.5 0 0 Z " fill="#838990" transform="translate(365,309)"/>
<path d="M0 0 C0.99 0.66 1.98 1.32 3 2 C2.67 2.66 2.34 3.32 2 4 C-0.64860427 4.59355614 -3.29197322 4.74209269 -6 5 C-2.25 1.125 -2.25 1.125 0 0 Z " fill="#A09EA3" transform="translate(330,275)"/>
<path d="M0 0 C0.99 0.33 1.98 0.66 3 1 C3 1.66 3 2.32 3 3 C-0.13498292 4.85776765 -2.37471432 5.20140476 -6 5 C-2.25 1.125 -2.25 1.125 0 0 Z " fill="#8F9297" transform="translate(337,270)"/>
<path d="M0 0 C1.65 0 3.3 0 5 0 C5 0.99 5 1.98 5 3 C5.99 3.33 6.98 3.66 8 4 C8 4.66 8 5.32 8 6 C2.25 4.125 2.25 4.125 0 3 C0 2.01 0 1.02 0 0 Z " fill="#BAB7B3" transform="translate(355,411)"/>
<path d="M0 0 C0.99 0 1.98 0 3 0 C3 0.66 3 1.32 3 2 C3.99 2.33 4.98 2.66 6 3 C4.35 3.66 2.7 4.32 1 5 C0.34 3.68 -0.32 2.36 -1 1 C-0.67 0.67 -0.34 0.34 0 0 Z " fill="#9C9B94" transform="translate(386,362)"/>
<path d="M0 0 C0 1.98 0 3.96 0 6 C-1.32 6 -2.64 6 -4 6 C-4 3 -4 3 -2.5625 1.3125 C-1 0 -1 0 0 0 Z " fill="#999798" transform="translate(317,285)"/>
<path d="M0 0 C-0.99 0.495 -0.99 0.495 -2 1 C-2 1.66 -2 2.32 -2 3 C-4.64 3.66 -7.28 4.32 -10 5 C-9.67 4.34 -9.34 3.68 -9 3 C-8.34 3 -7.68 3 -7 3 C-7 2.34 -7 1.68 -7 1 C-4.53721199 -0.231394 -2.7204945 -0.07159196 0 0 Z " fill="#C0B7A8" transform="translate(386,266)"/>
<path d="M0 0 C1.99097846 2.98646769 2.94124926 5.59687262 4 9 C2.35 8.01 0.7 7.02 -1 6 C-0.67 4.02 -0.34 2.04 0 0 Z " fill="#8D949C" transform="translate(308,295)"/>
<path d="M0 0 C0.66 0.99 1.32 1.98 2 3 C1.34 4.32 0.68 5.64 0 7 C-1.32 6.67 -2.64 6.34 -4 6 C-2.68 4.02 -1.36 2.04 0 0 Z " fill="#9B989C" transform="translate(454,373)"/>
<path d="M0 0 C2.475 0.495 2.475 0.495 5 1 C4.67 3.31 4.34 5.62 4 8 C2.22293791 5.33440687 1.12451727 2.9719385 0 0 Z " fill="#939299" transform="translate(455,291)"/>
<path d="M0 0 C1.8871875 0.061875 1.8871875 0.061875 3.8125 0.125 C3.8125 0.455 3.8125 0.785 3.8125 1.125 C2.141875 1.558125 2.141875 1.558125 0.4375 2 C-3.19041092 2.81741329 -3.19041092 2.81741329 -5.1875 5.125 C-5.1875 4.465 -5.1875 3.805 -5.1875 3.125 C-5.8475 2.795 -6.5075 2.465 -7.1875 2.125 C-4.09861478 0.06574319 -3.47814073 -0.1140374 0 0 Z " fill="#9193A1" transform="translate(272.1875,273.875)"/>
<path d="M0 0 C2.475 0.495 2.475 0.495 5 1 C4.67 2.32 4.34 3.64 4 5 C2.68 5 1.36 5 0 5 C0 3.35 0 1.7 0 0 Z " fill="#C2B8A8" transform="translate(395,347)"/>
<path d="M0 0 C0 0.66 0 1.32 0 2 C-6.625 3.25 -6.625 3.25 -10 1 C-6.61981469 -0.04005702 -3.5219721 -0.08004482 0 0 Z " fill="#82919B" transform="translate(378,253)"/>
<path d="M0 0 C1.32 0.66 2.64 1.32 4 2 C2.1875 3.5625 2.1875 3.5625 0 5 C-0.99 4.67 -1.98 4.34 -3 4 C-2.01 2.68 -1.02 1.36 0 0 Z " fill="#959997" transform="translate(452,402)"/>
<path d="M0 0 C1.98 0 3.96 0 6 0 C3.82575883 2.50037734 2.26954202 3.43628586 -1 4 C-0.67 2.68 -0.34 1.36 0 0 Z " fill="#8A8B94" transform="translate(365,326)"/>
<path d="M0 0 C0.99 0.33 1.98 0.66 3 1 C4.1875 4.0625 4.1875 4.0625 5 7 C4.01 7 3.02 7 2 7 C1.34 4.69 0.68 2.38 0 0 Z " fill="#848991" transform="translate(265,293)"/>
<path d="M0 0 C0.89130413 2.6739124 1.47731534 5.23723823 2 8 C0.68 8 -0.64 8 -2 8 C-1.125 1.125 -1.125 1.125 0 0 Z " fill="#C1B6AB" transform="translate(461,291)"/>
</svg>
